<?xml version="1.0" standalone="no"?>
<!DOCTYPE svg PUBLIC "-//W3C//DTD SVG 20010904//EN"
 "http://www.w3.org/TR/2001/REC-SVG-20010904/DTD/svg10.dtd">
<svg version="1.0" xmlns="http://www.w3.org/2000/svg"
 width="1409.000000pt" height="1409.000000pt" viewBox="0 0 1409.000000 1409.000000"
 preserveAspectRatio="xMidYMid meet">
<metadata>
Created by potrace 1.11, written by Peter Selinger 2001-2013
</metadata>
<g transform="translate(0.000000,1409.000000) scale(0.100000,-0.100000)"
fill="#000000" stroke="none">
<path d="M683 10984 c3 -5 -67 -9 -166 -10 -185 -1 -252 -8 -276 -27 -12 -9
-13 -9 -7 0 13 22 -90 -37 -126 -73 -31 -29 -67 -87 -74 -119 -2 -5 -6 -21 -9
-35 -4 -14 -7 -33 -7 -42 1 -10 -5 -18 -11 -18 -7 0 -6 -4 3 -10 8 -5 10 -10
4 -10 -13 0 -13 -42 1 -52 7 -5 7 -8 0 -8 -12 0 -12 -70 -1 -88 4 -7 3 -12 -2
-12 -10 0 -9 -30 2 -48 4 -6 3 -12 -2 -12 -10 0 -9 -30 2 -48 4 -6 3 -12 -2
-12 -10 0 -9 -30 2 -48 4 -6 3 -12 -2 -12 -10 0 -9 -30 2 -48 4 -6 3 -12 -2
-12 -10 0 -9 -30 2 -48 4 -6 3 -12 -2 -12 -10 0 -9 -30 2 -48 4 -6 3 -12 -2
-12 -10 0 -9 -30 2 -48 4 -6 3 -12 -2 -12 -10 0 -9 -30 2 -48 4 -6 3 -12 -2
-12 -10 0 -9 -30 2 -48 4 -6 3 -12 -2 -12 -10 0 -9 -30 2 -48 4 -6 3 -12 -2
-12 -10 0 -9 -30 2 -48 4 -6 3 -12 -2 -12 -10 0 -9 -30 2 -48 4 -6 3 -12 -2
-12 -10 0 -9 -30 2 -48 4 -6 3 -12 -2 -12 -10 0 -9 -30 2 -48 4 -6 3 -12 -2
-12 -10 0 -9 -30 2 -48 4 -6 3 -12 -2 -12 -10 0 -9 -30 2 -48 4 -6 3 -12 -2
-12 -10 0 -9 -30 2 -48 4 -6 3 -12 -2 -12 -10 0 -9 -30 2 -48 4 -6 3 -12 -2
-12 -10 0 -9 -30 2 -48 4 -6 3 -12 -2 -12 -10 0 -9 -30 2 -48 4 -6 3 -12 -2
-12 -10 0 -9 -30 2 -48 4 -6 3 -12 -2 -12 -10 0 -9 -30 2 -48 4 -6 3 -12 -2
-12 -10 0 -9 -30 2 -48 4 -6 3 -12 -2 -12 -10 0 -9 -30 2 -48 4 -6 3 -12 -2
-12 -10 0 -9 -30 2 -48 4 -6 3 -12 -2 -12 -10 0 -9 -30 2 -48 4 -6 3 -12 -2
-12 -10 0 -9 -30 2 -48 4 -6 3 -12 -2 -12 -10 0 -9 -30 2 -48 4 -6 3 -12 -2
-12 -10 0 -9 -30 2 -48 4 -6 3 -12 -2 -12 -10 0 -9 -30 2 -48 4 -6 3 -12 -2
-12 -10 0 -9 -30 2 -48 4 -6 3 -12 -2 -12 -10 0 -9 -30 2 -48 4 -6 3 -12 -2
-12 -10 0 -9 -30 2 -48 4 -6 3 -12 -2 -12 -10 0 -9 -30 2 -48 4 -6 3 -12 -2
-12 -10 0 -9 -30 2 -48 4 -6 3 -12 -2 -12 -10 0 -9 -30 2 -48 4 -6 3 -12 -2
-12 -10 0 -9 -30 2 -48 4 -6 3 -12 -2 -12 -10 0 -9 -30 2 -48 4 -6 3 -12 -2
-12 -10 0 -9 -30 2 -48 4 -6 3 -12 -2 -12 -10 0 -9 -30 2 -48 4 -6 3 -12 -2
-12 -10 0 -9 -30 2 -48 4 -6 3 -12 -2 -12 -10 0 -9 -30 2 -48 4 -6 3 -12 -2
-12 -10 0 -9 -30 2 -48 4 -6 3 -12 -2 -12 -10 0 -9 -30 2 -48 4 -6 3 -12 -2
-12 -10 0 -9 -30 2 -48 4 -6 3 -12 -2 -12 -10 0 -9 -30 2 -48 4 -6 3 -12 -2
-12 -10 0 -9 -30 2 -48 4 -6 3 -12 -2 -12 -10 0 -9 -30 2 -48 4 -6 3 -12 -2
-12 -10 0 -9 -30 2 -48 4 -6 3 -12 -2 -12 -10 0 -9 -30 2 -48 4 -6 3 -12 -2
-12 -10 0 -9 -30 2 -48 4 -6 3 -12 -2 -12 -10 0 -9 -30 2 -48 4 -6 3 -12 -2
-12 -10 0 -9 -30 2 -48 4 -6 3 -12 -2 -12 -10 0 -9 -30 2 -48 4 -6 3 -12 -2
-12 -10 0 -9 -30 2 -48 4 -6 3 -12 -2 -12 -10 0 -9 -30 2 -48 4 -6 3 -12 -2
-12 -10 0 -9 -30 2 -48 4 -6 3 -12 -2 -12 -10 0 -9 -30 2 -48 4 -6 3 -12 -2
-12 -10 0 -9 -30 2 -48 4 -6 3 -12 -2 -12 -10 0 -9 -30 2 -48 4 -6 3 -12 -2
-12 -10 0 -9 -30 2 -48 4 -6 3 -12 -2 -12 -10 0 -9 -30 2 -48 4 -6 3 -12 -2
-12 -10 0 -9 -30 2 -48 4 -6 3 -12 -2 -12 -10 0 -9 -30 2 -48 4 -6 3 -12 -2
-12 -10 0 -9 -30 2 -48 4 -6 3 -12 -2 -12 -10 0 -9 -30 2 -48 4 -6 3 -12 -3
-12 -6 0 -8 -6 -6 -12 2 -7 7 -31 10 -53 10 -73 17 -105 24 -105 4 0 12 -15
19 -33 15 -41 68 -96 114 -118 79 -39 88 -42 95 -36 3 4 13 1 21 -6 12 -9 274
-12 1196 -12 650 0 1200 2 1223 6 27 3 44 2 47 -5 3 -7 7 -8 13 -1 4 6 33 12
63 13 70 4 82 6 99 16 10 7 12 5 6 -3 -5 -10 -3 -11 11 -4 11 6 35 9 56 9 20
-1 34 2 31 7 -2 4 8 7 24 8 15 0 37 3 48 5 11 2 29 6 40 8 11 2 28 7 37 10 9
4 25 9 35 11 10 2 18 4 18 5 0 1 8 3 18 6 35 8 39 10 95 31 9 3 20 5 25 5 4
-1 7 2 7 6 0 5 6 9 13 9 21 1 42 8 48 16 3 5 12 9 20 11 19 3 97 44 132 68 15
11 27 16 27 11 0 -4 4 -3 8 2 4 6 33 28 66 50 69 47 256 232 256 253 0 5 9 17
20 27 11 10 17 22 14 26 -3 5 -2 9 3 9 4 0 19 25 33 55 14 30 28 55 33 55 4 0
7 9 7 20 0 11 4 20 8 20 5 0 9 7 10 15 1 8 3 22 4 30 1 8 5 15 10 15 4 0 7 3
6 8 -1 4 4 27 11 52 7 25 15 53 16 62 2 9 8 25 12 35 5 10 8 28 7 41 0 12 2
22 5 22 4 0 6 15 6 33 -1 17 1 36 4 42 11 20 10 55 -2 48 -8 -4 -7 -1 1 9 9
12 13 54 12 150 -1 186 -2 208 -10 208 -4 0 -6 10 -5 23 1 12 -2 30 -7 40 -6
12 -5 17 4 17 9 0 10 3 2 8 -6 4 -11 14 -11 22 0 14 -26 109 -41 150 -3 8 -6
21 -8 29 -1 8 -9 18 -16 22 -7 5 -9 9 -4 9 5 0 4 6 -2 13 -6 6 -11 17 -11 22
-1 12 -78 143 -97 165 -7 8 -24 27 -38 43 -14 15 -30 36 -36 47 -6 11 -17 20
-25 20 -8 0 -14 3 -13 8 3 7 -49 62 -58 62 -7 0 -88 64 -92 73 -2 4 -9 7 -16
7 -7 0 -25 11 -40 25 -14 13 -26 22 -26 19 0 -3 -26 8 -57 24 -32 17 -66 32
-75 36 -10 3 -18 10 -18 16 0 6 5 8 10 5 6 -3 10 -1 10 4 0 6 9 11 20 11 11 0
20 4 20 10 0 5 3 9 8 8 9 -3 103 43 120 60 7 6 17 12 21 12 4 0 21 11 37 25
15 13 30 23 32 21 2 -2 27 17 55 44 29 26 65 59 81 74 16 14 26 26 23 26 -3 0
10 17 29 38 19 20 37 45 40 55 3 9 10 17 15 17 6 0 7 5 4 10 -3 6 -2 10 2 10
5 0 17 20 28 45 11 25 24 45 29 45 5 0 7 3 4 6 -4 3 2 25 13 48 10 24 21 54
23 67 3 13 5 24 6 24 1 0 3 7 5 15 2 8 7 26 10 40 4 14 8 35 9 47 1 12 5 25 9
29 12 12 8 26 -5 18 -10 -6 -10 -5 -1 8 7 8 16 59 19 114 3 54 8 101 10 103 2
2 -1 10 -7 18 -7 8 -7 13 -2 13 10 0 8 50 -2 78 -2 6 1 12 8 12 7 0 8 3 2 8
-5 4 -10 30 -10 57 0 28 -2 54 -4 60 -3 5 -6 18 -7 30 -1 11 -5 34 -9 50 -4
17 -8 39 -9 50 -3 20 -23 96 -34 125 -3 8 -6 17 -6 20 -1 3 -5 11 -9 18 -5 6
-6 12 -2 12 3 0 0 10 -7 23 -7 12 -11 25 -10 30 1 4 -3 7 -10 7 -6 0 -8 3 -5
7 14 13 -100 198 -158 259 -19 19 -31 34 -28 34 7 0 -46 49 -98 92 -23 18 -53
43 -67 55 -15 13 -33 23 -39 23 -7 0 -13 4 -13 8 0 5 -30 24 -67 43 -38 19
-70 36 -73 39 -14 14 -52 30 -60 25 -5 -3 -13 3 -19 12 -6 10 -11 15 -11 11 0
-4 -22 1 -49 12 -27 10 -52 16 -55 13 -3 -4 -6 -1 -6 5 0 7 -11 12 -23 12 -13
0 -27 3 -31 7 -6 7 -15 9 -61 17 -11 2 -27 6 -35 9 -8 3 -28 8 -45 11 -16 3
-43 8 -60 11 -16 4 -39 8 -51 9 -11 2 -27 7 -34 11 -9 6 -11 4 -5 -5 6 -9 4
-11 -5 -5 -11 7 -71 14 -145 19 -11 0 -23 6 -27 11 -5 6 -8 5 -8 -3 0 -8 -5
-10 -12 -5 -7 4 -254 8 -548 8 -295 1 -542 5 -549 10 -9 5 -12 4 -8 -2 4 -6
-8 -10 -28 -10 -22 0 -32 4 -28 11 3 6 0 5 -8 -1 -7 -7 -17 -13 -22 -13 -4 0
-5 6 -1 13 5 9 4 9 -6 0 -8 -8 -20 -9 -37 -2 -13 5 -22 6 -19 1 6 -10 -307 -8
-323 3 -9 5 -12 4 -8 -2 4 -6 -8 -10 -28 -10 -22 0 -32 4 -28 11 3 6 0 5 -8
-1 -7 -7 -17 -13 -22 -13 -4 0 -5 6 -1 13 5 9 4 9 -6 0 -8 -8 -20 -9 -37 -2
-13 5 -22 6 -19 1 6 -10 -307 -8 -323 3 -8 5 -12 4 -8 -1z m2007 -847 c0 -5 5
-5 10 -2 6 3 15 3 22 -1 6 -4 27 -8 47 -9 57 -2 121 -17 121 -27 0 -5 4 -6 10
-3 11 7 143 -53 148 -67 2 -4 10 -8 17 -8 17 0 146 -141 139 -152 -3 -4 -1 -8
3 -8 12 0 57 -102 67 -153 3 -12 9 -35 14 -52 14 -47 8 -281 -8 -299 -7 -9
-10 -16 -6 -16 3 0 -1 -16 -9 -36 -8 -20 -12 -40 -9 -45 3 -5 1 -9 -4 -9 -5 0
-15 -13 -22 -30 -7 -16 -31 -50 -54 -75 -24 -25 -40 -47 -38 -50 3 -3 -2 -5
-12 -5 -9 0 -19 -7 -22 -15 -4 -8 -11 -15 -18 -15 -6 0 -22 -9 -36 -20 -14
-11 -33 -20 -42 -20 -10 0 -18 -5 -18 -11 0 -5 -4 -8 -9 -4 -5 3 -12 1 -15 -4
-3 -5 -23 -12 -43 -17 -44 -9 -52 -11 -55 -14 -4 -2 -24 -6 -66 -13 -19 -3
-36 -8 -40 -11 -3 -3 -11 -1 -19 5 -7 7 -13 7 -13 2 0 -6 -20 -10 -44 -10 -24
0 -48 -3 -55 -7 -6 -4 -11 -2 -11 4 0 6 -5 8 -11 4 -19 -11 -149 -11 -149 1 0
5 -4 4 -9 -3 -4 -8 -12 -14 -16 -14 -4 0 -12 6 -16 14 -5 8 -9 9 -9 2 0 -8
-17 -10 -51 -7 -40 3 -49 1 -44 -9 3 -7 -1 -4 -9 6 -9 11 -16 14 -16 8 0 -14
-21 -12 -32 3 -5 6 -8 6 -8 -1 0 -8 -17 -10 -51 -7 -40 3 -49 1 -44 -9 3 -7
-1 -4 -9 6 -9 11 -16 14 -16 8 0 -14 -21 -12 -32 3 -5 6 -8 6 -8 -1 0 -8 -17
-10 -51 -7 -40 3 -49 1 -44 -9 3 -7 -1 -4 -9 6 -9 11 -16 14 -16 8 0 -14 -21
-12 -32 3 -5 6 -8 6 -8 -1 0 -8 -17 -10 -51 -7 -40 3 -49 1 -44 -9 3 -7 -1 -4
-9 6 -9 11 -16 14 -16 8 0 -14 -21 -12 -32 3 -5 6 -8 6 -8 -1 0 -8 -17 -10
-51 -7 -40 3 -49 1 -44 -9 3 -7 -1 -4 -9 6 -9 11 -16 14 -16 8 0 -14 -21 -12
-32 3 -5 6 -8 6 -8 -1 0 -8 -17 -10 -51 -7 -40 3 -49 1 -44 -9 3 -7 -1 -4 -9
6 -9 11 -16 14 -16 8 0 -14 -21 -12 -32 3 -5 6 -8 6 -8 -1 0 -8 -17 -10 -51
-7 -40 3 -49 1 -44 -9 3 -7 -1 -4 -9 6 -9 11 -16 14 -16 8 0 -14 -21 -12 -32
3 -5 6 -8 6 -8 -1 0 -8 -17 -10 -51 -7 -40 3 -49 1 -44 -9 3 -7 -1 -4 -9 6 -9
11 -16 14 -16 8 0 -14 -21 -12 -32 3 -5 6 -8 6 -8 -1 0 -8 -17 -10 -51 -7 -40
3 -49 1 -44 -9 3 -7 -1 -4 -9 6 -9 11 -16 14 -16 8 0 -14 -21 -12 -32 3 -5 6
-8 6 -8 -1 0 -8 -17 -10 -51 -7 -36 3 -49 1 -44 -7 4 -7 -1 -6 -14 2 -11 7
-23 19 -26 26 -2 7 0 10 5 7 6 -3 10 -1 10 4 0 6 -3 11 -8 11 -7 0 -7 36 1 98
2 18 0 35 -5 38 -5 3 -5 11 1 18 6 6 6 18 2 25 -5 8 -5 26 -1 41 4 15 4 33 0
40 -4 6 -4 27 0 46 5 20 4 34 -2 34 -5 0 -6 6 -2 12 10 16 13 48 5 48 -8 0 -4
77 4 90 3 6 1 10 -5 10 -6 0 -8 5 -4 12 10 16 10 50 0 66 -4 7 -3 18 2 25 17
20 17 23 3 40 -11 14 -11 17 0 17 9 0 10 3 2 11 -7 7 -8 21 -3 40 5 18 5 29
-1 29 -6 0 -7 6 -3 12 10 16 13 48 5 48 -6 0 -4 49 3 105 1 11 -2 25 -6 32 -5
6 -4 14 2 18 8 5 8 11 -1 21 -9 11 -9 14 0 14 7 0 9 5 5 12 -10 16 -13 48 -4
48 3 0 5 19 3 42 -2 23 -1 39 2 36 4 -3 16 4 28 16 l22 21 897 0 c494 0 898
-4 898 -8z m-1501 -1911 c9 -6 12 -5 8 0 -7 12 293 12 312 0 8 -6 12 -5 8 0
-7 12 453 12 472 0 8 -6 12 -5 8 0 -7 12 453 12 472 0 9 -6 12 -5 8 1 -8 12
92 11 112 -1 9 -6 12 -5 7 2 -7 12 41 11 61 -1 6 -4 14 -3 17 2 4 6 19 6 39 1
17 -5 55 -11 82 -14 47 -5 111 -19 145 -33 8 -4 17 -7 20 -8 3 -1 13 -5 23 -8
29 -12 52 -18 55 -17 2 1 12 -8 21 -19 10 -11 20 -18 23 -16 3 3 32 -21 64
-52 61 -60 108 -113 99 -113 -3 0 6 -22 20 -49 13 -28 26 -65 27 -83 2 -18 6
-35 10 -38 4 -3 9 -32 12 -63 2 -32 6 -60 9 -63 2 -3 1 -20 -3 -39 -5 -21 -3
-38 3 -44 7 -7 7 -11 1 -11 -5 0 -10 -12 -9 -27 1 -24 -11 -89 -32 -171 -3
-12 -9 -25 -14 -28 -5 -3 -9 -13 -9 -23 0 -9 -9 -27 -20 -39 -11 -12 -20 -25
-20 -30 0 -23 -170 -178 -170 -156 0 5 -4 4 -8 -2 -9 -15 -132 -65 -142 -59
-5 3 -14 0 -22 -7 -7 -7 -29 -14 -48 -15 -19 -1 -48 -5 -65 -8 -16 -3 -244 -7
-505 -9 -262 -1 -482 -6 -489 -11 -8 -5 -12 -4 -8 1 7 12 -213 12 -232 0 -8
-6 -12 -5 -8 0 7 12 -213 12 -232 0 -8 -6 -12 -5 -8 0 7 12 -213 12 -232 0 -8
-6 -12 -5 -8 0 3 5 -30 9 -78 9 -76 1 -86 3 -105 25 -12 13 -19 32 -17 41 3 9
1 22 -3 29 -4 7 -4 25 0 40 4 15 4 33 0 40 -5 7 -4 23 0 35 5 14 4 27 -3 34
-8 8 -7 11 3 11 10 0 11 3 3 11 -7 7 -8 21 -3 40 5 18 5 29 -1 29 -6 0 -7 6
-3 12 10 16 13 48 5 48 -7 0 -6 40 2 98 2 18 0 35 -5 38 -5 3 -5 11 1 18 6 6
6 18 2 25 -5 8 -5 26 -1 41 4 15 4 33 0 40 -5 7 -4 23 0 35 5 14 4 27 -3 34
-8 8 -7 11 3 11 10 0 11 3 3 11 -7 7 -8 21 -3 40 5 18 5 29 -1 29 -6 0 -7 6
-3 12 10 16 13 48 5 48 -6 0 -4 49 3 105 1 11 -2 26 -7 33 -6 8 -5 12 3 12 10
0 10 3 0 15 -10 12 -10 15 1 15 9 0 10 3 2 11 -7 7 -8 21 -3 40 5 18 5 29 -1
29 -6 0 -7 6 -3 12 11 17 12 48 3 48 -4 0 -4 12 2 28 l9 28 163 -1 c89 0 168
-4 176 -9z"/>
<path d="M7573 10982 c3 -4 -115 -7 -261 -8 -147 0 -282 -3 -299 -7 -22 -3
-33 -1 -33 6 0 8 -3 8 -8 2 -9 -12 -19 -15 -90 -20 -32 -2 -75 -7 -97 -11 -22
-4 -50 -7 -62 -8 -13 0 -23 -3 -23 -7 0 -4 -8 -6 -17 -5 -10 2 -48 -5 -86 -15
-37 -9 -70 -18 -72 -18 -3 -1 -6 -1 -7 -2 -2 0 -10 -2 -18 -4 -76 -15 -225
-70 -359 -132 -51 -23 -98 -43 -103 -43 -5 0 -7 -4 -4 -8 3 -5 -11 -14 -30
-21 -18 -7 -34 -17 -34 -22 0 -5 -5 -9 -11 -9 -12 0 -159 -105 -199 -142 -14
-13 -40 -35 -58 -51 -19 -15 -31 -27 -29 -27 3 0 -22 -27 -54 -60 -33 -34 -59
-65 -59 -71 0 -6 -4 -8 -8 -5 -4 3 -16 -11 -27 -30 -10 -19 -22 -34 -27 -34
-4 0 -8 -6 -8 -14 0 -8 -4 -16 -9 -18 -11 -4 -81 -114 -81 -128 0 -5 -3 -10
-8 -10 -4 0 -16 -20 -27 -45 -11 -25 -23 -45 -28 -45 -4 0 -6 -3 -5 -7 1 -5
-13 -39 -31 -78 -18 -38 -34 -77 -36 -85 -1 -8 -10 -31 -18 -50 -22 -49 -30
-73 -33 -90 -1 -8 -9 -34 -18 -58 -8 -23 -15 -43 -15 -45 2 -12 -16 -64 -25
-69 -8 -5 -7 -8 2 -8 10 0 10 -5 2 -20 -6 -11 -8 -20 -6 -20 3 0 0 -12 -6 -27
-6 -16 -10 -38 -9 -51 0 -13 -3 -21 -7 -18 -4 2 -7 -14 -7 -37 0 -23 -2 -46
-6 -52 -4 -5 -9 -32 -13 -60 -6 -53 -15 -122 -21 -167 -1 -15 -6 -32 -11 -39
-5 -8 -3 -10 5 -4 10 5 11 3 4 -11 -4 -11 -8 -35 -8 -54 0 -19 -4 -38 -10 -42
-6 -5 -5 -8 3 -8 8 0 10 -5 5 -12 -10 -18 -12 -558 -1 -558 5 0 4 -8 -1 -19
-6 -10 -7 -21 -4 -25 4 -4 8 -33 9 -64 1 -31 3 -57 4 -57 1 0 3 -16 5 -35 15
-149 25 -223 41 -282 3 -13 7 -36 8 -53 2 -16 6 -37 9 -45 3 -8 8 -28 11 -45
2 -16 9 -43 16 -60 6 -16 11 -31 11 -32 -2 -12 13 -62 18 -59 3 2 7 -8 7 -22
2 -32 8 -53 34 -117 4 -11 18 -47 31 -80 12 -33 31 -75 41 -92 10 -18 15 -33
13 -33 -3 0 6 -18 20 -40 14 -22 25 -42 25 -45 0 -10 83 -140 91 -143 5 -2 9
-10 9 -18 0 -8 5 -14 11 -14 5 0 7 -4 4 -10 -3 -5 -1 -10 5 -10 6 0 14 -8 17
-17 17 -44 296 -323 323 -323 5 0 10 -4 12 -8 2 -5 32 -29 68 -53 36 -24 68
-47 71 -52 3 -5 9 -8 13 -8 20 3 26 0 20 -11 -4 -7 -4 -10 0 -6 7 6 125 -50
152 -73 6 -5 13 -7 16 -4 3 3 26 -6 52 -20 26 -14 56 -25 66 -25 10 0 22 -5
25 -10 4 -6 11 -8 16 -5 5 4 9 1 9 -5 0 -7 7 -10 15 -7 8 4 17 2 20 -3 4 -6
16 -10 29 -10 12 0 26 -3 30 -7 4 -4 19 -9 34 -11 15 -2 29 -7 32 -10 3 -4 14
-7 25 -7 11 0 32 -5 46 -12 15 -7 29 -9 32 -6 4 3 13 0 22 -7 11 -9 15 -9 15
-1 0 7 5 9 13 4 6 -4 19 -9 27 -10 8 -1 37 -7 64 -12 28 -5 58 -8 68 -6 10 2
18 0 18 -4 0 -4 24 -8 53 -8 28 -1 52 -2 52 -3 0 -10 2131 -22 2161 -13 6 2 9
16 6 30 -3 15 1 29 9 34 11 7 9 9 -6 9 -11 0 -15 4 -10 8 6 4 10 16 10 27 0
11 -4 23 -10 27 -6 5 -6 8 1 8 7 0 9 11 6 25 -2 14 2 33 9 42 12 14 12 16 0 8
-11 -6 -13 -3 -9 13 4 13 1 22 -5 22 -8 0 -8 3 -2 8 6 4 10 21 10 37 0 17 -4
33 -10 37 -7 5 -7 8 0 8 6 0 10 24 10 52 0 29 -4 56 -10 60 -6 5 -6 8 1 8 7 0
9 11 6 25 -2 14 2 33 9 42 12 14 12 16 0 8 -11 -6 -13 -3 -9 13 4 12 2 22 -4
22 -5 0 -6 5 -2 11 3 6 6 34 5 62 0 28 5 57 12 66 9 11 9 13 0 8 -9 -6 -12 5
-10 43 1 28 -2 50 -8 50 -5 0 -3 4 5 10 12 7 11 10 -5 15 -40 14 -44 14 -50 4
-4 -5 -10 -7 -15 -4 -12 8 -1899 7 -1912 -1 -6 -4 -9 -3 -5 2 3 5 -13 10 -36
11 -57 3 -142 11 -142 13 0 1 -9 3 -20 4 -31 4 -118 19 -132 23 -7 1 -21 5
-30 7 -10 3 -18 5 -18 6 0 1 -8 3 -19 5 -34 7 -151 50 -154 57 -2 5 -9 8 -16
8 -14 0 -93 37 -110 51 -6 5 -33 24 -61 42 -69 45 -173 152 -229 236 -25 39
-46 75 -46 81 0 5 -4 10 -10 10 -5 0 -10 9 -10 19 0 11 -7 26 -15 35 -8 8 -15
24 -15 35 0 12 -5 21 -11 21 -5 0 -7 5 -4 10 3 6 1 10 -4 10 -6 0 -10 3 -10 8
1 4 0 9 -1 12 -3 8 -11 44 -14 60 -1 8 -8 25 -14 37 -7 12 -12 32 -12 46 0 13
-3 27 -7 31 -5 4 -9 16 -9 27 -1 10 -2 20 -3 22 -2 1 -4 12 -7 25 -2 12 -6 32
-8 45 -3 12 -5 22 -6 22 -1 0 -3 16 -5 35 -1 19 -3 35 -5 35 -1 0 -4 14 -5 30
-2 17 -6 57 -9 89 -3 32 -8 61 -10 63 -3 3 -1 16 4 29 5 13 6 26 1 28 -14 9
-21 345 -7 353 4 3 2 9 -5 14 -9 6 -10 12 -4 17 6 4 10 41 10 82 0 41 2 79 4
85 3 5 6 28 7 50 3 59 18 169 30 223 3 15 7 36 9 47 6 28 10 44 24 93 6 23 9
48 5 54 -4 6 -3 8 3 5 9 -6 17 16 23 58 1 4 35 83 68 155 38 85 123 201 207
282 48 47 181 138 201 138 8 0 14 4 14 9 0 9 171 77 214 85 14 2 29 7 34 10
10 6 52 15 112 23 25 3 47 8 50 12 3 3 23 6 45 5 22 0 46 4 53 9 8 6 12 5 12
-2 0 -7 5 -9 13 -4 6 4 72 9 145 9 74 1 136 4 139 7 3 3 10 4 17 1 20 -8 86
-11 86 -4 0 3 15 5 33 3 59 -6 257 -6 263 0 3 3 11 4 18 1 22 -9 86 -10 86 -2
0 4 11 3 25 -2 13 -5 27 -5 30 -1 3 5 22 5 42 0 21 -4 39 -4 41 0 2 5 18 5 38
1 19 -4 36 -4 39 1 3 4 11 6 18 3 23 -8 87 -10 87 -2 0 4 11 3 25 -2 13 -5 27
-5 30 -1 3 5 22 5 42 0 21 -4 39 -4 41 0 2 5 18 5 38 1 19 -4 36 -4 39 1 3 4
11 6 18 3 23 -8 87 -10 87 -2 0 4 11 3 25 -2 13 -5 27 -5 30 -1 3 5 22 5 42 0
21 -4 39 -4 41 0 2 5 18 5 38 1 19 -4 36 -4 39 1 3 4 11 6 18 3 23 -8 87 -10
87 -2 0 4 11 3 25 -2 13 -5 27 -5 30 -1 3 5 22 5 42 0 21 -4 39 -5 41 0 1 4
22 5 45 2 23 -4 59 -4 80 0 23 3 37 2 37 -5 0 -6 5 -5 12 2 15 15 18 52 4 52
-5 0 -1 7 10 16 10 8 13 12 5 8 -11 -5 -13 -2 -9 14 4 13 1 22 -5 22 -8 0 -8
3 -2 8 6 4 10 21 10 37 0 17 -4 33 -10 37 -7 5 -7 8 0 8 6 0 10 24 10 52 0 29
-4 56 -10 60 -6 5 -6 8 1 8 7 0 9 11 6 25 -2 14 2 33 9 42 12 14 12 16 0 8
-11 -6 -13 -3 -9 13 4 12 2 22 -4 22 -5 0 -6 5 -2 11 3 6 6 34 5 62 0 28 5 57
12 66 9 11 9 13 0 8 -9 -6 -12 5 -10 43 1 28 -2 50 -8 50 -7 0 -7 3 0 8 6 4
10 30 10 57 0 28 -4 53 -10 57 -6 5 -6 8 1 8 6 0 9 10 7 23 l-5 23 -196 -1
c-108 -1 -205 3 -216 8 -11 5 -16 5 -13 0 4 -5 -9 -10 -28 -10 -22 0 -32 4
-28 11 3 6 0 5 -8 -1 -7 -7 -17 -13 -22 -13 -4 0 -5 6 -1 13 5 9 4 9 -6 0 -8
-8 -20 -9 -37 -2 -13 5 -22 6 -19 1 6 -10 -307 -8 -323 3 -9 5 -12 4 -8 -2 4
-6 -8 -10 -28 -10 -22 0 -32 4 -28 11 3 6 0 5 -8 -1 -7 -7 -17 -13 -22 -13 -4
0 -5 6 -1 13 5 9 4 9 -6 0 -8 -8 -20 -9 -37 -2 -13 5 -22 6 -19 1 6 -10 -307
-8 -323 3 -9 5 -12 4 -8 -2 4 -6 -8 -10 -28 -10 -22 0 -32 4 -28 11 3 6 0 5
-8 -1 -7 -7 -17 -13 -22 -13 -4 0 -5 6 -1 13 5 9 4 9 -6 0 -8 -8 -20 -9 -37
-2 -13 5 -22 6 -20 1z"/>
<path d="M11277 9923 c-1 -1 -38 -4 -82 -7 -44 -3 -93 -9 -110 -12 -16 -3 -45
-6 -62 -7 -18 0 -33 -4 -33 -7 0 -3 -14 -7 -31 -8 -18 -1 -37 -6 -43 -10 -13
-8 -18 -9 -47 -11 -11 0 -18 -4 -16 -8 3 -5 -7 -8 -21 -9 -39 -2 -236 -93
-272 -126 -11 -10 -23 -18 -28 -18 -9 0 -43 -25 -81 -60 -15 -14 -42 -37 -60
-52 -18 -16 -29 -28 -25 -28 4 0 -6 -13 -22 -28 -16 -16 -36 -39 -44 -52 -8
-12 -19 -28 -25 -34 -29 -34 -95 -162 -88 -170 4 -3 2 -6 -4 -6 -11 0 -21 -25
-30 -70 -2 -13 -8 -27 -11 -30 -4 -3 -7 -12 -7 -20 1 -8 -1 -19 -4 -25 -6 -11
-12 -33 -13 -52 -1 -7 -4 -13 -8 -13 -3 0 -6 -10 -7 -22 -1 -13 -4 -45 -8 -73
-4 -27 -8 -54 -9 -60 0 -5 -5 -13 -11 -17 -6 -5 -5 -8 3 -8 9 0 10 -5 4 -17
-13 -25 -12 -1663 1 -1663 5 0 5 -5 -2 -13 -6 -8 -7 -17 -1 -23 5 -5 10 -27
12 -49 2 -22 6 -45 9 -50 3 -6 5 -21 5 -35 -1 -14 6 -31 14 -38 11 -10 11 -12
1 -6 -10 5 -12 3 -5 -7 4 -8 10 -23 11 -34 2 -11 9 -36 15 -55 7 -19 11 -38
10 -42 -1 -5 2 -8 6 -8 4 0 14 -20 21 -45 7 -25 17 -45 22 -45 5 0 9 -6 9 -14
0 -8 7 -22 16 -30 8 -9 13 -16 9 -16 -3 0 3 -13 14 -29 12 -16 21 -31 21 -34
0 -25 196 -217 270 -264 36 -23 71 -47 78 -53 6 -6 12 -8 12 -5 0 4 15 -3 33
-14 19 -11 37 -18 40 -14 4 3 9 -2 13 -11 3 -9 10 -14 15 -11 4 3 16 1 26 -4
26 -14 57 -24 66 -23 4 1 7 -2 7 -6 0 -4 8 -8 18 -9 9 0 44 -8 77 -16 33 -9
72 -18 87 -21 15 -3 32 -7 37 -10 5 -4 13 -2 16 4 5 8 11 8 20 0 8 -6 33 -11
57 -12 24 0 53 -4 66 -9 14 -5 22 -5 22 2 0 6 5 7 13 2 12 -7 2421 -13 2444
-5 8 3 12 98 12 368 0 335 -2 364 -17 365 -9 0 -551 1 -1204 1 -860 1 -1185 4
-1181 12 4 6 0 5 -9 -1 -8 -7 -18 -10 -22 -6 -4 4 -17 8 -29 9 -12 0 -38 5
-57 9 -19 5 -41 8 -47 6 -7 -1 -13 3 -13 9 0 5 -3 9 -7 8 -24 -8 -145 65 -167
100 -4 8 -17 21 -27 30 -10 9 -19 22 -19 29 0 7 -4 13 -9 13 -9 0 -37 60 -33
73 1 4 -2 7 -6 7 -5 0 -9 6 -10 13 0 6 -8 38 -16 70 -9 39 -15 116 -16 235
l-1 178 1000 0 c794 1 1003 4 1016 14 11 9 15 9 15 1 0 -8 8 -10 22 -5 13 4
41 8 63 9 22 2 54 5 70 8 83 16 102 19 125 21 14 0 27 4 30 8 3 4 19 10 35 13
39 8 59 13 63 15 1 2 5 3 10 4 4 1 17 7 28 14 12 6 24 8 28 4 4 -3 10 -2 14 3
12 17 52 36 62 30 6 -4 10 0 10 8 0 7 6 14 13 14 44 0 222 153 283 243 40 57
96 160 89 160 -3 0 1 10 9 23 18 29 55 148 63 200 3 23 10 45 17 49 8 6 8 8
-1 8 -8 0 -9 9 -3 31 5 17 9 34 8 38 0 3 1 8 2 11 5 11 6 306 1 315 -3 6 -6
21 -7 35 -1 22 -7 64 -20 145 -5 28 -12 60 -14 60 -2 0 -9 28 -12 50 -2 11 -5
22 -8 25 -7 7 -32 73 -33 88 0 6 -4 12 -9 12 -5 0 -7 4 -4 8 3 5 -4 21 -15 38
-11 16 -26 43 -34 59 -23 47 -33 61 -104 144 -12 13 -21 28 -21 33 0 4 -4 8
-9 8 -5 0 -25 15 -44 33 -47 43 -77 67 -104 80 -13 5 -23 14 -23 18 0 5 -7 6
-15 3 -8 -4 -15 -2 -15 3 0 10 -113 66 -144 70 -11 2 -25 8 -33 14 -7 6 -22 9
-33 6 -11 -3 -18 -1 -14 4 4 8 -25 14 -48 10 -5 0 -8 3 -8 8 0 6 -8 10 -17 10
-26 -1 -67 6 -78 13 -6 3 -20 4 -32 3 -13 -1 -23 3 -23 8 0 5 -6 4 -14 -2 -10
-8 -16 -9 -21 -1 -3 6 -11 8 -16 5 -5 -4 -9 -3 -9 2 0 4 -24 8 -52 7 -29 -1
-57 2 -63 5 -8 4 -1504 9 -1508 4z m1450 -736 c5 -3 26 -7 46 -9 21 -1 37 -5
37 -9 0 -3 12 -6 26 -6 15 0 30 -7 35 -14 5 -8 9 -10 9 -6 0 12 88 -40 127
-77 36 -32 90 -113 95 -143 2 -10 6 -20 10 -23 20 -15 34 -266 16 -287 -6 -7
-8 -13 -5 -13 4 0 0 -18 -8 -40 -8 -22 -11 -40 -7 -40 4 0 2 -4 -4 -8 -6 -4
-19 -22 -28 -41 -19 -37 -108 -126 -126 -126 -3 0 -10 -3 -15 -7 -10 -6 -117
-48 -123 -48 -2 0 0 6 4 13 4 6 -1 5 -12 -4 -10 -9 -36 -15 -57 -15 -20 1 -37
-2 -37 -6 0 -3 -428 -6 -951 -6 l-951 0 5 261 c4 258 5 276 25 328 6 15 8 30
5 33 -4 3 -1 6 5 6 7 0 12 7 12 15 0 8 5 15 12 15 6 0 8 3 5 7 -6 6 9 34 37
71 6 8 30 34 54 57 39 39 58 50 137 85 11 5 36 12 55 16 19 4 42 9 50 11 8 2
35 6 59 8 25 3 46 7 47 8 5 5 1402 -1 1411 -6z"/>
<path d="M4513 5022 l-41 -3 1 -240 c1 -151 -2 -241 -8 -243 -7 -3 -7 -5 0 -5
7 -1 10 -246 9 -716 l-2 -716 137 3 136 3 0 175 c1 96 -3 180 -8 187 -4 6 -4
14 0 16 11 7 10 208 0 224 -4 6 -4 14 1 17 10 6 9 227 -1 243 -4 6 -4 14 1 17
5 3 8 47 7 98 -3 94 6 118 32 96 7 -6 13 -7 13 -2 0 5 103 9 230 9 126 0 230
-4 230 -9 0 -5 6 -3 13 3 8 6 16 8 20 5 3 -3 22 -7 44 -9 21 -1 40 -4 43 -5 3
-2 10 -4 15 -5 6 -2 13 -4 18 -5 4 -1 10 -3 15 -4 46 -12 175 -105 146 -106
-5 0 -1 -5 9 -11 9 -5 17 -19 17 -29 0 -10 5 -22 11 -25 6 -4 8 -13 5 -20 -3
-8 2 -19 10 -26 10 -8 11 -15 4 -24 -5 -6 -7 -15 -3 -18 3 -4 6 -185 5 -402
l0 -396 136 3 137 3 -2 48 c-2 36 0 46 10 41 9 -6 9 -4 1 7 -14 18 -14 52 0
61 8 5 7 8 -1 8 -7 0 -13 12 -13 26 0 16 4 23 12 18 7 -5 8 -3 2 7 -13 21 -13
309 0 302 6 -3 5 0 -1 8 -7 7 -13 21 -13 32 0 12 4 16 13 11 9 -6 9 -4 1 7
-14 18 -14 52 0 61 8 5 7 8 -1 8 -7 0 -13 12 -13 26 0 16 4 23 12 18 7 -5 8
-3 2 7 -5 8 -9 39 -10 69 -1 30 -5 75 -9 100 -4 25 -8 56 -9 69 -2 14 -8 27
-14 29 -7 2 -9 8 -6 13 3 6 0 16 -6 24 -7 8 -9 15 -5 15 5 0 1 8 -8 18 -10 10
-14 22 -10 25 3 4 1 7 -5 7 -7 0 -12 7 -12 15 0 35 -171 184 -202 177 -5 -1
-8 2 -8 7 0 7 -9 12 -48 21 -4 1 -23 8 -41 16 -19 8 -41 12 -48 10 -7 -3 -13
-2 -13 3 0 5 -10 9 -22 9 -13 1 -32 3 -43 5 -11 3 -26 -1 -34 -7 -11 -8 -13
-8 -7 2 9 15 23 14 -329 16 l-270 1 0 288 c0 184 -4 287 -10 287 -74 4 -189 4
-222 2z"/>
<path d="M7486 5023 c-1 -1 -52 -3 -114 -4 -62 -1 -112 -5 -112 -10 0 -5 -6
-6 -14 -3 -8 3 -28 -1 -44 -10 -16 -8 -32 -13 -34 -10 -3 2 -11 -2 -18 -11 -7
-8 -17 -15 -22 -15 -22 0 -94 -95 -103 -137 -2 -10 -10 -43 -18 -73 -7 -30
-14 -95 -16 -145 -1 -49 -5 -93 -7 -97 -3 -5 1 -8 8 -8 10 0 10 -2 -1 -9 -11
-7 -11 -9 0 -14 11 -4 11 -6 1 -6 -7 -1 -10 -5 -7 -11 7 -12 1 -13 -90 -15
-39 -1 -75 -4 -80 -7 -6 -3 -9 -50 -9 -105 3 -171 -8 -151 82 -151 42 0 83 0
89 -1 8 -1 12 -15 11 -39 0 -22 2 -44 6 -50 4 -7 2 -12 -5 -12 -8 0 -9 -3 0
-13 6 -8 8 -17 5 -20 -9 -8 -9 -201 0 -215 4 -7 4 -12 -1 -12 -4 0 -8 -13 -8
-30 0 -16 4 -30 8 -30 5 0 5 -5 1 -12 -4 -7 -8 -24 -8 -38 0 -14 4 -31 8 -38
4 -7 4 -12 -1 -12 -4 0 -8 -13 -8 -30 0 -16 4 -30 8 -30 5 0 5 -5 1 -12 -4 -7
-8 -24 -8 -38 0 -14 4 -31 8 -38 4 -7 4 -12 -1 -12 -4 0 -8 -13 -8 -30 0 -16
4 -30 8 -30 5 0 5 -5 1 -12 -4 -7 -8 -24 -8 -38 0 -14 4 -31 8 -38 4 -7 4 -12
-1 -12 -4 0 -8 -13 -8 -30 0 -16 4 -30 10 -30 5 0 4 -5 -2 -11 -7 -7 -8 -21
-3 -40 6 -19 5 -29 -2 -29 -7 0 -7 -4 1 -13 6 -8 8 -17 4 -20 -3 -4 -7 -20 -7
-37 l-1 -30 136 0 c101 0 138 3 141 13 2 6 3 249 3 540 -1 525 -1 527 19 528
12 1 52 1 89 0 51 0 66 3 60 12 -5 9 -3 9 8 1 8 -6 48 -11 92 -10 42 0 77 -3
77 -7 0 -4 6 -2 13 4 8 8 12 49 12 137 l0 125 -185 1 -185 1 -1 95 c-1 59 4
107 12 128 7 17 10 32 7 32 -3 0 8 14 26 30 17 17 36 28 41 25 6 -3 10 -2 10
4 0 6 6 8 14 5 8 -3 17 0 21 5 3 6 11 8 17 5 15 -10 52 -11 58 -2 3 4 22 3 42
-1 20 -5 40 -6 43 -3 3 4 22 5 42 3 23 -2 33 1 29 8 -4 6 -1 11 6 11 10 0 9 3
-2 11 -10 7 -11 12 -3 15 8 4 9 14 3 35 -5 16 -5 29 -1 29 4 0 5 23 1 50 -4
28 -4 50 0 50 3 0 6 9 6 19 0 17 -9 20 -74 23 -41 2 -75 2 -76 1z"/>
<path d="M13206 5020 c-49 -5 -49 -5 -51 -42 0 -21 4 -38 9 -38 7 0 8 -3 1 -8
-13 -9 -14 -65 0 -74 6 -5 6 -8 0 -8 -12 0 -13 -80 -1 -99 7 -11 6 -12 -5 -6
-12 8 -12 6 0 -8 7 -9 10 -17 5 -17 -8 0 -11 -67 -4 -87 1 -5 1 -12 0 -18 -8
-35 -6 -92 4 -104 9 -12 8 -13 -4 -6 -13 8 -13 7 -1 -8 7 -9 10 -17 5 -17 -8
0 -11 -67 -4 -87 1 -5 1 -12 0 -18 -8 -35 -6 -92 4 -104 9 -12 8 -13 -4 -6
-13 8 -13 7 -1 -8 7 -9 10 -17 5 -17 -5 0 -9 -23 -10 -50 0 -29 4 -50 10 -50
7 0 8 -3 1 -8 -13 -9 -14 -65 0 -74 6 -5 6 -8 0 -8 -13 0 -14 -70 0 -70 6 0 7
-3 0 -8 -13 -9 -14 -65 0 -74 7 -5 7 -8 0 -8 -9 0 -12 -42 -5 -60 1 -3 1 -9 0
-15 -8 -35 -6 -92 4 -104 9 -12 8 -13 -4 -6 -13 8 -13 7 -1 -8 7 -9 10 -17 5
-17 -8 0 -11 -67 -4 -87 1 -5 1 -12 0 -18 -7 -31 -6 -75 2 -75 5 0 6 -5 2 -12
-12 -19 -12 -82 0 -97 9 -12 8 -13 -4 -6 -13 8 -13 7 -1 -8 7 -9 10 -17 5 -17
-8 0 -11 -67 -4 -87 1 -5 1 -12 0 -18 -7 -30 -5 -71 4 -77 7 -5 7 -8 1 -8 -5
0 -10 -15 -9 -32 l1 -33 137 -3 138 -3 -3 40 c-2 22 0 43 4 47 3 4 2 15 -4 25
-7 14 -6 19 3 19 8 0 9 3 3 8 -5 4 -10 21 -10 37 0 17 5 33 10 37 7 5 7 8 0 8
-5 0 -10 16 -10 35 0 19 5 35 10 35 7 0 7 3 0 8 -5 4 -10 21 -10 37 0 17 5 33
10 37 7 5 7 8 0 8 -5 0 -10 16 -10 35 0 19 5 35 10 35 7 0 7 3 0 8 -5 4 -10
21 -10 37 0 17 5 33 10 37 7 5 7 8 0 8 -5 0 -10 16 -10 35 0 19 5 35 10 35 7
0 7 3 0 8 -5 4 -10 21 -10 37 0 17 5 33 10 37 7 5 7 8 0 8 -10 0 -12 96 -2
106 3 3 3 12 1 18 -8 22 -10 96 -2 96 4 0 5 6 3 13 -11 30 -12 87 -1 87 6 0 4
5 -4 10 -9 6 -11 10 -3 10 7 0 10 6 8 13 -11 30 -12 87 -1 87 6 0 4 5 -4 10
-9 6 -11 10 -3 10 7 0 10 6 8 13 -11 30 -12 87 -1 87 6 0 4 5 -4 10 -9 6 -11
10 -3 10 7 0 10 6 8 13 -11 30 -12 87 -1 87 6 0 4 5 -4 10 -9 6 -11 10 -3 10
7 0 10 6 8 13 -11 30 -12 87 -1 87 6 0 4 5 -4 10 -9 6 -11 10 -3 10 7 0 10 6
8 13 -11 30 -12 87 -1 87 6 0 4 5 -4 10 -9 6 -11 10 -3 10 7 0 10 6 8 13 -11
30 -12 87 -1 87 6 0 4 5 -4 10 -9 6 -11 10 -3 10 7 0 10 6 8 13 -8 23 -12 87
-5 87 12 0 -2 60 -14 60 -92 4 -170 4 -210 0z"/>
<path d="M13838 5019 c-15 -3 -22 -12 -20 -22 2 -9 -3 -17 -10 -17 -9 0 -9 -3
2 -10 13 -9 13 -11 0 -20 -8 -5 -10 -10 -5 -10 6 0 11 -22 11 -50 1 -32 -2
-47 -9 -43 -6 4 -7 1 -2 -7 12 -20 13 -210 0 -210 -6 0 -7 -3 0 -8 14 -10 17
-104 3 -96 -7 4 -7 0 1 -13 6 -11 8 -23 4 -26 -3 -4 0 -13 7 -22 10 -12 9 -16
-4 -21 -9 -3 -13 -11 -9 -17 11 -18 11 -87 -1 -87 -6 0 -4 -5 4 -10 13 -9 13
-11 0 -20 -8 -5 -10 -10 -5 -10 6 0 11 -22 11 -50 1 -32 -2 -47 -9 -43 -6 4
-7 1 -2 -7 12 -20 13 -210 0 -210 -6 0 -7 -3 0 -8 14 -10 17 -104 3 -96 -7 5
-8 2 -3 -5 12 -21 13 -131 1 -131 -7 0 -7 -3 -1 -8 14 -10 17 -104 3 -96 -7 5
-8 2 -4 -5 13 -21 14 -131 2 -131 -7 0 -7 -3 -1 -8 14 -10 17 -104 3 -96 -7 5
-8 2 -3 -5 12 -20 13 -125 1 -133 -7 -5 -7 -8 -1 -8 6 0 10 -32 9 -80 l-1 -80
137 0 137 0 -1 73 c0 39 -5 78 -10 86 -6 9 -5 12 1 8 6 -4 10 17 10 58 0 41
-4 62 -10 58 -6 -4 -7 -1 -1 8 14 21 14 229 0 229 -7 0 -8 3 -1 8 15 10 17
124 2 115 -6 -4 -7 -1 -1 8 13 20 14 120 1 112 -6 -4 -7 -1 -1 8 13 20 14 160
1 152 -6 -4 -7 -1 -1 8 13 21 14 291 0 308 -8 11 -8 13 0 8 14 -8 14 131 0
152 -6 9 -5 12 1 8 13 -8 12 132 -1 152 -6 9 -5 12 1 8 14 -9 13 146 -1 155
-8 6 -8 8 0 8 7 0 10 31 9 93 -1 50 -3 94 -4 97 -2 7 -215 6 -243 -1z"/>
<path d="M209 4816 c-1 0 -3 -67 -4 -148 l-2 -147 466 -1 c256 0 473 -2 481
-4 8 -2 29 -7 47 -11 33 -8 113 -83 113 -107 0 -8 5 -19 11 -25 17 -17 12
-133 -9 -186 -10 -26 -21 -44 -25 -41 -4 4 -7 2 -7 -4 0 -18 -31 -45 -75 -67
-37 -18 -67 -19 -415 -21 -368 -1 -442 -7 -477 -36 -7 -6 -13 -7 -13 -4 0 4
-9 -1 -19 -11 -24 -23 -59 -85 -67 -120 -3 -16 -7 -197 -8 -403 l-1 -375 153
-3 152 -3 -2 201 c-2 126 1 202 7 204 7 3 7 5 0 5 -6 1 -9 41 -8 103 1 57 2
113 3 125 0 25 34 39 85 35 38 -4 48 -3 118 0 31 2 57 0 57 -5 0 -4 8 -4 18 0
9 5 31 7 47 5 38 -3 47 -3 118 0 32 2 61 0 63 -4 2 -3 17 -3 32 0 15 4 57 7
94 7 38 0 68 3 68 7 0 3 7 5 17 4 36 -5 213 75 213 97 0 6 3 7 6 4 8 -7 57 42
95 93 33 45 67 120 74 162 3 18 9 47 14 63 4 17 7 45 5 63 -1 20 1 30 8 26 7
-4 7 0 0 13 -6 11 -7 25 -2 33 5 9 5 19 -1 27 -6 7 -8 17 -4 23 3 5 2 10 -4
10 -5 0 -8 9 -6 20 2 11 -1 22 -6 25 -5 4 -7 10 -4 15 3 5 0 21 -6 37 -7 15
-13 34 -15 42 -1 8 -9 18 -16 22 -7 5 -9 9 -5 9 20 0 -102 140 -122 140 -6 0
-14 6 -18 13 -9 13 -63 42 -75 39 -5 -1 -8 3 -8 9 0 5 -4 8 -9 4 -5 -3 -12 -1
-15 4 -6 9 -69 25 -99 24 -9 0 -17 3 -17 7 0 5 -995 12 -1001 6z"/>
<path d="M3794 4771 c3 -5 -42 -8 -100 -7 -58 0 -111 -2 -117 -6 -12 -7 -16
-221 -5 -255 4 -13 3 -23 -2 -23 -5 0 -7 -6 -4 -14 7 -19 -11 -23 -98 -22 -43
1 -78 -1 -79 -4 -4 -22 -3 -243 1 -249 3 -4 41 -8 85 -8 44 -1 83 -2 86 -2 4
-1 6 -87 5 -191 -1 -118 3 -192 9 -194 7 -3 7 -5 0 -5 -23 -2 -1 -443 24 -475
4 -6 11 -22 14 -36 17 -69 122 -156 201 -164 14 -1 29 -5 32 -9 3 -3 87 -6
185 -7 l180 -1 -2 39 c-2 21 0 43 4 49 4 7 3 14 -1 17 -5 3 -6 26 -2 51 4 25
4 48 -1 50 -4 3 -5 14 -2 25 5 19 0 20 -108 20 -162 0 -212 18 -240 86 -17 39
-21 744 -5 745 66 6 314 2 324 -5 7 -5 12 -4 12 4 0 7 6 10 13 7 9 -3 12 25
12 124 0 108 -2 129 -15 130 -8 1 -91 2 -185 2 l-170 2 0 153 -1 153 -27 14
c-15 8 -25 10 -23 6z"/>
<path d="M1878 4439 c-6 -4 -8 -14 -5 -22 3 -9 1 -18 -6 -21 -7 -2 -7 -5 -2
-5 6 -1 9 -39 8 -98 -1 -53 2 -104 7 -113 5 -8 10 -10 10 -5 0 6 84 10 235 9
172 -1 233 1 228 10 -5 8 -3 8 8 0 21 -16 122 -17 113 -1 -6 9 -4 9 7 1 8 -6
39 -11 69 -10 30 1 61 -2 68 -7 8 -6 12 -5 12 2 0 7 11 9 28 7 15 -3 46 -6 70
-8 23 -1 42 -6 42 -12 0 -5 3 -6 6 -3 4 4 20 -3 36 -14 29 -21 56 -63 61 -98
2 -11 6 -24 10 -27 4 -4 2 -13 -4 -21 -9 -9 -8 -13 0 -13 13 0 10 -22 -4 -32
-6 -5 -6 -8 1 -8 14 0 11 -39 -3 -48 -6 -4 -176 -7 -377 -6 -201 0 -366 -3
-366 -6 0 -4 -12 -6 -27 -5 -16 1 -34 -2 -40 -8 -7 -5 -13 -6 -13 -2 0 4 -7 2
-15 -5 -8 -7 -15 -9 -15 -6 0 4 -10 1 -22 -6 -13 -7 -26 -11 -30 -10 -5 1 -8
-2 -8 -8 0 -6 -4 -9 -9 -8 -4 2 -26 -11 -48 -29 -55 -43 -112 -163 -108 -225
1 -16 -1 -28 -6 -28 -4 0 -5 -8 -3 -17 2 -10 6 -45 8 -78 2 -33 5 -60 6 -60 1
0 4 -9 6 -20 3 -11 6 -25 7 -30 8 -34 55 -106 92 -140 52 -48 68 -61 75 -61 4
0 20 -5 68 -20 6 -2 18 -5 25 -7 6 -1 17 -5 22 -9 6 -4 204 -7 441 -7 378 -1
436 1 480 16 47 16 112 72 115 101 1 6 2 20 3 30 1 9 4 22 7 27 3 6 6 142 5
302 -1 189 3 293 9 293 7 0 7 3 0 8 -5 4 -11 50 -11 102 -2 125 -5 160 -15
166 -4 2 -6 13 -4 24 2 11 0 20 -6 20 -5 0 -9 9 -9 20 0 11 -4 20 -10 20 -5 0
-10 8 -10 18 0 21 -114 132 -135 132 -8 0 -15 5 -15 10 0 6 -8 10 -18 10 -10
0 -22 3 -26 8 -4 4 -12 8 -17 8 -5 1 -10 3 -11 4 -2 1 -12 4 -23 5 -11 2 -38
6 -60 10 -50 10 -893 12 -907 4z m998 -767 c14 -2 13 -54 -1 -64 -6 -5 -5 -8
3 -8 10 0 10 -5 2 -20 -6 -12 -7 -20 -1 -20 10 0 9 -19 -2 -37 -5 -8 -3 -13 3
-13 7 0 8 -6 0 -19 -5 -11 -6 -22 -2 -25 7 -4 9 -51 2 -51 -1 0 -3 -8 -5 -18
-6 -29 -12 -32 -91 -32 -40 0 -74 -2 -74 -5 0 -3 -54 -3 -120 0 -66 3 -120 3
-120 0 0 -3 -55 -4 -122 -3 -68 1 -123 3 -123 4 0 1 -13 2 -30 4 -16 1 -31 4
-32 5 -2 1 -6 3 -10 4 -26 7 -62 30 -57 37 3 5 1 9 -4 9 -24 0 -43 103 -29
150 3 8 8 25 12 37 4 13 11 20 16 17 5 -3 9 0 9 5 0 6 17 19 38 29 33 16 70
18 382 16 190 0 350 -2 356 -2z"/>
<path d="M8338 4442 c-27 -2 -48 -7 -48 -12 0 -4 -8 -6 -18 -3 -19 4 -131 -31
-141 -44 -3 -5 -13 -9 -21 -11 -20 -5 -78 -49 -115 -88 -37 -39 -80 -89 -77
-89 2 0 -7 -22 -19 -50 -13 -27 -24 -54 -26 -60 -18 -65 -30 -124 -28 -142 1
-13 -1 -23 -5 -23 -3 0 -7 -12 -7 -27 0 -16 -1 -50 -3 -78 -1 -27 -1 -52 0
-55 1 -3 2 -30 3 -60 0 -30 5 -58 11 -62 7 -5 7 -8 -2 -8 -7 0 -10 -4 -7 -10
3 -5 8 -24 11 -42 10 -59 12 -73 14 -75 2 -2 4 -7 5 -13 1 -5 4 -12 5 -15 1
-3 3 -8 5 -12 14 -52 18 -63 26 -63 5 0 8 -3 7 -7 -4 -14 13 -53 23 -53 5 0 9
-7 9 -15 0 -7 8 -19 18 -24 9 -6 14 -11 10 -11 -26 -1 137 -128 173 -135 10
-2 28 -9 41 -16 13 -7 30 -14 38 -16 8 -2 29 -6 45 -10 39 -9 556 -14 569 -5
11 6 28 11 56 16 8 1 25 7 36 14 12 6 24 8 28 5 3 -3 6 0 6 7 0 7 3 10 7 7 3
-4 28 9 55 28 26 19 53 35 58 35 6 0 10 3 10 8 0 4 18 25 40 47 21 22 39 46
40 53 0 6 3 12 8 12 4 0 13 12 19 28 36 82 46 109 49 131 2 13 9 28 16 32 10
7 10 9 -2 9 -9 0 -11 3 -5 8 14 10 19 76 19 227 -1 146 -6 225 -15 225 -6 0
-9 17 -10 53 0 9 -4 17 -10 17 -5 0 -9 11 -9 25 0 14 -4 25 -10 25 -5 0 -10 9
-10 19 0 11 -8 27 -17 37 -10 10 -16 18 -13 19 6 3 -36 59 -67 91 -49 50 -150
114 -178 114 -8 0 -15 4 -15 10 0 5 -7 7 -15 4 -8 -4 -15 -2 -15 4 0 6 -15 9
-32 8 -18 -1 -39 2 -45 7 -12 9 -375 15 -475 9z m267 -259 c131 -2 165 -5 165
-15 0 -4 6 -5 14 -2 17 7 90 -30 121 -59 28 -28 69 -87 59 -87 -3 0 -2 -6 4
-12 10 -13 23 -64 28 -108 1 -14 3 -27 4 -30 6 -15 4 -36 -5 -42 -6 -5 -6 -8
2 -8 19 0 4 -210 -18 -251 -5 -11 -7 -19 -3 -19 3 0 1 -6 -5 -13 -6 -8 -9 -16
-6 -19 3 -3 -1 -11 -10 -18 -8 -7 -15 -16 -15 -21 0 -24 -100 -96 -142 -103
-7 -1 -17 -4 -23 -7 -5 -3 -29 -6 -53 -5 -23 1 -42 -3 -42 -9 0 -5 -5 -3 -10
5 -9 13 -10 13 -10 0 0 -9 -3 -11 -8 -5 -7 10 -62 15 -62 5 0 -3 -36 -3 -80 0
-44 3 -80 1 -80 -4 0 -5 -6 -4 -12 1 -7 5 -30 9 -50 8 -21 0 -38 3 -38 8 0 4
-4 6 -9 2 -5 -3 -12 -1 -16 5 -4 6 -10 8 -15 5 -5 -3 -11 -1 -15 5 -4 6 -11 8
-16 5 -5 -4 -9 -1 -9 4 0 6 -4 11 -10 11 -16 0 -60 42 -54 52 3 4 1 8 -5 8
-13 0 -52 75 -44 84 4 3 1 6 -4 6 -6 0 -10 8 -8 18 1 9 0 22 -4 27 -10 17 -12
37 -14 145 -2 58 1 123 6 145 4 22 9 52 10 68 1 15 5 27 9 27 5 0 8 7 8 16 0
37 96 144 123 136 4 -1 10 5 13 13 3 8 10 12 15 9 5 -3 15 -2 22 3 13 8 38 11
114 14 34 1 51 5 46 12 -4 6 -1 7 8 1 8 -5 64 -10 124 -11z"/>
<path d="M9884 4441 c-2 -2 -18 -5 -36 -7 -18 -1 -50 -10 -70 -18 -21 -9 -40
-16 -43 -16 -4 1 -22 -15 -43 -36 -51 -51 -78 -112 -87 -199 -2 -16 -5 -30 -6
-30 -1 0 -3 -233 -4 -517 l-2 -518 137 0 138 0 0 25 c0 14 -6 25 -12 25 -8 0
-8 2 0 8 14 9 14 82 0 82 -8 0 -8 2 0 8 14 9 14 224 -1 234 -7 5 -6 8 1 8 7 0
12 17 11 44 0 27 -5 43 -10 39 -6 -4 -7 -1 -1 8 13 20 14 160 1 152 -6 -4 -7
-1 -1 8 13 21 13 129 0 129 -8 0 -8 2 0 8 14 9 14 82 0 82 -7 0 -7 3 1 8 6 4
10 23 9 42 -4 63 33 136 79 155 35 14 48 16 132 17 58 0 81 4 76 12 -5 8 -3 8
8 0 21 -16 122 -17 113 -1 -6 9 -4 9 7 1 20 -15 122 -17 113 -2 -5 7 -3 8 7 2
20 -12 111 -16 104 -4 -3 6 -3 10 2 10 6 0 9 167 4 235 -1 9 -617 15 -627 6z"/>
<path d="M11520 4442 c-6 -2 -10 -55 -10 -131 l0 -127 225 -1 c161 0 222 3
218 11 -5 8 -3 8 8 0 21 -16 122 -17 113 -1 -6 9 -4 9 7 1 8 -7 25 -11 39 -10
14 1 31 -2 38 -7 7 -6 12 -6 12 0 0 6 18 10 40 9 22 -1 40 -5 40 -9 0 -5 5 -5
10 -2 6 4 7 12 3 18 -5 9 -3 9 8 0 8 -6 32 -12 54 -13 65 -1 75 -3 75 -13 0
-6 3 -8 6 -4 11 10 60 -20 78 -48 23 -35 45 -121 35 -137 -4 -7 -3 -18 3 -25
7 -9 7 -13 -1 -13 -13 0 -10 -22 4 -32 13 -10 38 -9 -370 -11 -198 -1 -365 -5
-372 -10 -6 -4 -14 -1 -16 5 -4 9 -8 10 -14 2 -4 -6 -15 -11 -23 -11 -27 0
-130 -35 -130 -45 0 -5 -4 -6 -10 -3 -5 3 -31 -16 -57 -43 -56 -57 -76 -82
-67 -82 3 0 1 -6 -5 -14 -6 -7 -12 -25 -13 -40 -1 -14 -5 -26 -9 -26 -3 0 -5
-14 -4 -30 1 -17 -2 -33 -6 -35 -4 -3 -5 -15 -1 -27 4 -16 2 -19 -9 -13 -11 7
-12 6 -2 -6 7 -9 14 -42 15 -73 2 -32 6 -60 10 -62 5 -3 8 -16 8 -29 0 -13 5
-27 10 -30 6 -3 10 -13 10 -21 0 -33 112 -154 135 -145 4 1 11 -2 14 -7 11
-17 139 -51 145 -38 3 7 5 7 5 -2 1 -20 838 -16 888 4 56 24 92 55 98 86 4 15
10 28 15 28 4 0 7 14 6 30 -1 17 0 30 3 30 9 0 7 103 -2 117 -4 6 -3 14 1 17
5 3 9 26 9 50 0 28 -4 43 -10 39 -6 -4 -7 -1 -1 8 13 22 14 42 1 58 -9 11 -9
13 0 8 8 -5 11 2 11 23 -1 17 -5 33 -10 36 -4 3 -5 11 -1 17 13 19 13 98 0 90
-6 -4 -7 -1 -1 8 13 22 14 42 1 58 -9 11 -9 13 0 8 8 -5 11 2 11 23 -1 17 -5
33 -10 36 -4 3 -5 11 -1 17 13 19 13 98 0 90 -6 -4 -7 -1 -2 8 11 17 16 59 7
59 -4 0 -7 12 -8 28 -2 45 -8 82 -14 82 -3 0 -7 12 -8 28 -1 15 -7 29 -12 30
-6 2 -10 9 -10 16 0 23 -89 112 -136 136 -27 14 -51 28 -52 33 -2 4 -7 5 -11
3 -4 -3 -25 1 -47 9 -30 10 -42 10 -53 2 -12 -9 -13 -9 -7 1 5 8 1 12 -11 13
-58 3 -885 3 -893 1z m998 -775 c10 -7 10 -12 1 -23 -8 -10 -8 -14 0 -14 7 0
8 -8 1 -25 -7 -17 -6 -25 1 -25 8 0 7 -5 -1 -15 -7 -8 -8 -15 -3 -15 10 0 10
-41 -1 -58 -4 -7 -2 -12 4 -12 6 0 8 -5 3 -12 -11 -19 -13 -38 -3 -38 5 0 2
-13 -6 -30 -14 -26 -30 -35 -56 -31 -5 0 -8 -3 -8 -8 0 -6 -12 -6 -30 -1 -16
5 -30 6 -30 2 0 -4 -63 -5 -140 -2 -77 3 -140 3 -140 0 0 -3 -36 -3 -80 0 -44
3 -80 2 -80 -2 0 -4 -11 -3 -25 2 -17 6 -25 6 -25 -1 0 -6 -5 -7 -11 -3 -7 4
-28 8 -48 9 -47 2 -109 32 -116 56 -4 10 -10 19 -14 19 -10 0 -16 62 -12 127
2 32 55 88 93 99 41 12 708 12 726 1z"/>
</g>
</svg>
